<svg xmlns="http://www.w3.org/2000/svg" viewBox="0 0 24.38 26.43">
  <defs>
    <style>
      .cls-1, .cls-2 {
        fill: #dfdfdf;
      }

      .cls-1, .cls-2, .cls-3 {
        stroke: #777772;
        stroke-linecap: round;
        stroke-linejoin: round;
      }

      .cls-2, .cls-3 {
        stroke-width: 0.5px;
      }

      .cls-3 {
        fill: none;
      }
    </style>
  </defs>
  <title>Recurso 14</title>
  <g id="Capa_2" data-name="Capa 2">
    <g id="Capa_1-2" data-name="Capa 1">
      <g>
        <path class="cls-1" d="M.5,6.16V24c0,1,.51,1.89,1.13,1.89H22.74c.63,0,1.13-.84,1.13-1.89V6.18c0-1-.51-1.9-1.14-1.89l-5.51.08c-.64,0-1.15-.85-1.14-1.91v0c0-1.05-.5-1.91-1.13-1.91H9.59C9,.5,8.46,1.34,8.46,2.39h0c0,1-.51,1.89-1.13,1.89H1.63C1,4.27.5,5.12.5,6.16Z"/>
        <rect class="cls-2" x="9.8" y="2.74" width="4.98" height="0.89"/>
        <g>
          <circle class="cls-2" cx="11.79" cy="16.08" r="6.07"/>
          <circle class="cls-2" cx="11.79" cy="16.08" r="3.52"/>
        </g>
        <circle class="cls-3" cx="19.72" cy="8.36" r="1.45"/>
      </g>
    </g>
  </g>
</svg>
